<svg xmlns="http://www.w3.org/2000/svg" width="256" height="256"><path fill-opacity=".016" d="M0 128.004v128.004l128.25-.254 128.25-.254.254-127.75L257.008 0H0v128.004m.485.496c0 70.4.119 99.053.265 63.672.146-35.38.146-92.98 0-128C.604 29.153.485 58.1.485 128.5" fill="#1976D2" fill-rule="evenodd"/><path fill-opacity=".267" d="M123 .722c-3.799 1.427-7.417 4.967-9.203 9.003-2.627 5.94-1.708 11.261 2.811 16.262 2.91 3.222 3.392 4.471 3.392 8.79v5.035l-5.25.685c-2.888.376-9.213 1.993-14.057 3.594-4.844 1.6-8.987 2.909-9.208 2.909-.22 0-1.516-1.912-2.88-4.25-2.231-3.824-2.367-4.665-1.364-8.391 2.126-7.903-3.8-17.435-11.77-18.931C65.511 13.56 56 20.996 56 30.652 56 37.359 63.197 46 68.782 46c1.376 0 2.976 1.555 4.884 4.75l2.838 4.75-10.61 10.502-10.611 10.502-4.168-2.502c-3.097-1.859-4.422-3.442-5.156-6.161-2.981-11.047-16.846-15.269-25.419-7.742-9.045 7.941-6.337 22.14 5.052 26.489 3.839 1.466 5.331 1.577 8.767.653 3.726-1.003 4.567-.867 8.391 1.364 2.338 1.364 4.25 2.66 4.25 2.88 0 .221-1.309 4.364-2.909 9.208-1.601 4.844-3.218 11.169-3.594 14.057l-.685 5.25h-5.035c-4.319 0-5.568-.482-8.79-3.392-9.568-8.645-24.293-2.945-25.748 9.967-.617 5.475 1.024 9.571 5.363 13.38 5.998 5.266 14.803 5.272 20.432.013 2.683-2.506 3.99-2.968 8.399-2.968h5.221l1.238 6.75c.68 3.713 2.373 10.048 3.76 14.079 1.388 4.031 2.371 7.44 2.186 7.576-4.957 3.631-7.675 4.42-13.426 3.899-7.917-.718-12.545 1.361-15.946 7.164-3.032 5.174-3.171 10.52-.398 15.396 3.046 5.358 6.495 7.479 12.887 7.925 8.419.589 11.769-2.121 17.048-13.789.654-1.445 8.866-6.588 9.354-5.858 2.547 3.808 10.357 12.212 14.735 15.855l5.679 4.726-2.799 4.496c-2.083 3.347-3.617 4.66-6.001 5.137-4.488.897-10.632 7.32-11.517 12.04-.923 4.92.806 10.59 4.295 14.084 11.267 11.284 30.598.303 26.378-14.984-.921-3.335-.74-4.301 1.543-8.196 1.908-3.256 3.013-4.239 4.209-3.743 5.831 2.418 12.504 4.437 18.121 5.484 3.575.667 7.063 1.366 7.75 1.554.772.211 1.25 2.121 1.25 4.992 0 3.725-.588 5.319-2.958 8.018-6.221 7.085-6.049 16.088.428 22.365 3.018 2.926 4.339 3.461 9.463 3.832 7.293.527 12.093-1.973 15.098-7.863 3.229-6.33 2.026-13.961-2.893-18.344-1.712-1.526-2.138-3.043-2.138-7.621v-5.716l5.75-.654c3.162-.359 9.453-1.937 13.979-3.506 8.832-3.063 8.764-3.077 11.55 2.416 1.088 2.145 1.394 4.885 1.061 9.5-.541 7.508 1.344 11.604 6.901 14.991 4.36 2.659 12.158 2.659 16.518 0 11.653-7.105 8.587-25.986-4.65-28.633-2.235-.447-3.737-1.768-5.572-4.9l-2.513-4.287 10.581-10.58 10.58-10.581 4.287 2.513c3.132 1.835 4.453 3.337 4.9 5.572 1.419 7.095 7.789 11.894 15.779 11.887 15.222-.013 20.672-20.834 7.608-29.069-2.713-1.71-4.424-1.979-10.217-1.609-6.022.385-7.454.131-10.652-1.887l-3.694-2.333 2.877-8.299c1.583-4.564 3.172-10.887 3.531-14.049l.654-5.75h5.716c4.578 0 6.095.426 7.621 2.138 6.688 7.506 18.814 6.018 24.54-3.012 2.881-4.542 4.1-13.126 1.865-13.126-.55 0-1-.587-1-1.304 0-2.211-6.468-7.71-10.318-8.773-4.902-1.354-11.145.386-14.917 4.158-2.44 2.44-3.732 2.919-7.873 2.919-3.115 0-5.082-.464-5.297-1.25-.188-.687-.887-4.175-1.554-7.75-1.047-5.619-3.064-12.283-5.488-18.13-.503-1.216.474-2.273 3.842-4.155 4.005-2.239 4.982-2.407 8.627-1.481 5.516 1.4 10.574-.19 14.942-4.697 2.932-3.025 3.467-4.344 3.838-9.47.35-4.847.029-6.604-1.724-9.44-4.432-7.173-15.549-9.628-21.991-4.858-3.428 2.538-7.083 8.009-7.101 10.629-.01 1.467-1.453 2.895-4.777 4.727l-4.763 2.625-2.973-3.964c-3.006-4.008-9.635-10.507-14.776-14.487l-2.803-2.17 2.055-4.029c1.591-3.118 3.353-4.657 7.803-6.814 7.871-3.815 10.556-7.915 10.037-15.331-.446-6.392-2.567-9.841-7.925-12.887-6.679-3.798-15.53-1.734-20.364 4.75-1.597 2.142-2.01 4.293-2.048 10.682-.046 7.6-.375 8.758-4.07 14.338-.123.185-3.522-.798-7.553-2.186-4.031-1.387-10.366-3.08-14.079-3.76L137 39.654v-5.72c0-4.083.416-5.88 1.455-6.278.8-.307 2.425-2.46 3.61-4.783 3.848-7.543 1.521-15.467-6.055-20.623C132.806.07 126.657-.653 123 .722m1.612 8.097c-.279.451.82.624 2.441.387 1.621-.238 2.947-.607 2.947-.819 0-.762-4.893-.37-5.388.432m59.138 14.843c.688.278 1.813.278 2.5 0 .688-.277.125-.504-1.25-.504s-1.937.227-1.25.504M65.98 25.524c-1.838 2.215-.792 2.47 1.27.309.963-1.008 1.355-1.833.872-1.833-.482 0-1.446.686-2.142 1.524m162.103 39.759c.23.156 1.317.943 2.417 1.75 1.85 1.357 1.897 1.336.628-.283-.755-.963-1.843-1.75-2.417-1.75-.574 0-.857.127-.628.283m-205.004 6.3c.048 1.165.285 1.402.604.605.289-.722.253-1.585-.079-1.917-.332-.332-.568.258-.525 1.312m127.638 17.515c-1.385.806-1.641 1.789-1.151 4.405.908 4.839-1.097 9.84-5.562 13.875-5.921 5.349-13.743 5.975-19.368 1.55-2.287-1.799-5.636-1.745-5.636.09 0 1.835 6.219 5.835 10.768 6.926 14.974 3.592 28.628-10.669 24.602-25.694-.674-2.512-1.089-2.644-3.653-1.152m-56.545 11.423c-1.751 3.843-1.442 8.924.657 10.824 2.482 2.246 4.638 2.189 3.555-.095-.457-.963-.842-4.187-.857-7.166-.03-5.961-1.534-7.558-3.355-3.563m152.559 24.559c.354 1.352.807 1.806 1.057 1.057.24-.722-.038-1.787-.62-2.369-.742-.742-.872-.351-.437 1.312M.286 128.5c.008 2.75.202 3.756.432 2.236.229-1.52.223-3.77-.014-5-.237-1.23-.425.014-.418 2.764m7.872.5c0 1.375.227 1.938.504 1.25.278-.687.278-1.812 0-2.5-.277-.687-.504-.125-.504 1.25m223.406 58.707c-.542 1.425-.428 1.54.56.56.684-.679.991-1.486.683-1.793-.308-.308-.867.247-1.243 1.233M24 188.378c0 .207.788.995 1.75 1.75 1.586 1.243 1.621 1.208.378-.378-1.307-1.666-2.128-2.195-2.128-1.372M190 230c-.589 1.1-.845 2-.57 2s.981-.9 1.57-2c.589-1.1.845-2 .57-2s-.981.9-1.57 2m-59 17c-.901.582-1.025.975-.309.985.655.008 1.469-.435 1.809-.985.767-1.242.421-1.242-1.5 0" fill="#1976D2" fill-rule="evenodd"/><path fill-opacity=".353" d="M122.5 1.417c-5.565 2.485-8.784 6.959-9.276 12.897-.478 5.765.928 9.704 4.674 13.093C119.53 28.885 120 30.494 120 34.61v5.299l-3.75.63c-5.515.926-17.887 4.283-21.776 5.907l-3.382 1.413-2.436-4.359c-2.103-3.762-2.365-5.251-1.916-10.851.647-8.062-1.633-12.451-8.093-15.578-5.461-2.643-8.164-2.608-13.662.179-10.656 5.401-11.211 19.638-1.033 26.497 1.839 1.239 4.29 2.253 5.446 2.254 1.485.001 2.939 1.492 4.956 5.083l2.854 5.082-2.354 1.583c-3.049 2.05-15.055 14.056-17.105 17.105l-1.583 2.354-5.082-2.854c-3.168-1.779-5.082-3.532-5.083-4.654-.004-7.64-10.89-15.026-18.802-12.757C20.303 58.921 15 65.555 15 72.205c0 3.871 4.021 10.645 7.65 12.888 2.986 1.845 4.5 2.088 10.165 1.634 5.828-.468 7.179-.229 10.848 1.922l4.191 2.456-1.41 3.375c-1.623 3.884-4.979 16.258-5.905 21.77l-.63 3.75H34.61c-4.116 0-5.725-.47-7.203-2.102-3.392-3.748-7.328-5.152-13.103-4.673-15.8 1.31-19.249 22.488-4.71 28.92 6.078 2.688 11.351 1.803 16.393-2.753 3.241-2.927 4.458-3.392 8.884-3.392 2.821 0 5.129.175 5.129.39 0 3.01 3.725 18.433 5.517 22.843l2.358 5.803-2.438 1.482c-1.34.815-3.567 2.17-4.947 3.012-1.975 1.203-2.966 1.286-4.647.386-2.908-1.556-10.499-.563-13.645 1.786-4.916 3.67-6.627 6.974-6.627 12.798 0 8.326 5.339 14.285 13.639 15.22 7.801.879 14.476-3.87 16.519-11.752.637-2.462 1.979-3.914 5.312-5.75l4.459-2.457 10.597 10.545 10.598 10.545-2.459 4.472c-1.684 3.061-3.292 4.65-5.098 5.036-13.28 2.838-16.897 19.776-5.962 27.926 1.489 1.111 4.813 2.179 7.5 2.41 5.981.515 10.832-1.781 14.142-6.695 2.031-3.016 2.297-4.399 1.921-10-.333-4.957-.001-7.374 1.398-10.182 1.009-2.025 2.212-3.916 2.673-4.201.462-.285 4.886.783 9.832 2.374 4.947 1.59 11.326 3.201 14.176 3.579l5.182.688v5.573c0 4.911-.379 5.965-3.185 8.86-2.686 2.771-3.244 4.191-3.556 9.048-.29 4.519.072 6.463 1.677 9.02 5.738 9.141 18.22 9.786 25.351 1.312 3.66-4.35 4.331-9.886 1.872-15.444-1.096-2.478-2.931-5.092-4.076-5.807-1.705-1.065-2.083-2.31-2.083-6.866v-5.564l7.25-1.229c3.988-.675 10.4-2.336 14.25-3.69 3.85-1.354 7.266-2.464 7.591-2.467.325-.002 1.736 2.133 3.136 4.746 1.788 3.338 2.302 5.345 1.729 6.75-2.581 6.33 1.183 15.914 7.411 18.87 9.985 4.738 22.633-2.687 22.633-13.288 0-6.969-5.55-14.165-12.02-15.586-2.691-.591-7.076-5.543-8.216-9.277-.145-.475 2.51-3.178 5.9-6.006 3.39-2.828 8.068-7.581 10.396-10.562l4.233-5.42 4.508 2.648c3.364 1.977 4.853 3.648 5.872 6.59 2.37 6.847 8.455 11.531 14.979 11.531C233.4 200 241 192.324 241 184.5c0-10.18-11.389-18.259-20.5-14.544-1.405.573-3.412.059-6.75-1.729-2.613-1.4-4.748-2.811-4.746-3.136.003-.325 1.113-3.741 2.467-7.591s3.015-10.262 3.69-14.25l1.229-7.25h5.15c4.008 0 5.573.476 7.055 2.145 5.48 6.171 15.549 7.129 21.582 2.053 4.769-4.013 8.888-15.113 6.073-16.365-.412-.183-1.437-1.673-2.276-3.31-.839-1.638-3.089-4.04-5-5.339-2.904-1.974-4.419-2.295-9.235-1.958-4.831.338-6.292.917-9.048 3.589-2.895 2.806-3.949 3.185-8.86 3.185h-5.573l-.688-5.182c-.378-2.85-1.989-9.229-3.579-14.176-1.591-4.946-2.659-9.37-2.374-9.832.285-.461 2.176-1.664 4.201-2.673 2.808-1.399 5.225-1.731 10.182-1.398 5.601.376 6.984.11 10-1.921 6.653-4.482 9-14.026 5.044-20.514-7.105-11.652-24.174-9.614-28.058 3.349-.912 3.044-2.227 4.611-5.558 6.623l-4.363 2.635-10.652-10.705L179.761 55.5l2.457-4.459c1.836-3.333 3.288-4.675 5.75-5.312 1.811-.47 4.385-1.569 5.72-2.444C196.775 41.262 200 34.99 200 31.008c0-12.556-14.649-20.09-24.481-12.59-5.776 4.405-7.953 12.192-5.195 18.582.372.862-.615 3.507-2.322 6.221l-2.97 4.722-4.266-1.827c-4.239-1.815-13.839-4.361-21.016-5.573l-3.75-.634v-5.083c0-4.375.473-5.607 3.392-8.839 4.76-5.268 5.532-10.553 2.451-16.765C138.1 1.677 129.601-1.752 122.5 1.417m-.427 9.218c-1.14 1.449-2.073 3.453-2.073 4.453 0 2.155 2.044 6.912 2.969 6.912.357 0 1.522.638 2.59 1.417 1.528 1.116 2.065 3.083 2.525 9.25l.585 7.833.165-7.429c.159-7.125.309-7.56 3.666-10.635C138.914 16.561 136.265 8 128.034 8c-3.01 0-4.357.595-5.961 2.635M66.174 25.314C61.308 30.494 65.181 39 72.406 39c3.273 0 3.734.426 7.234 6.684 2.056 3.676 3.897 6.204 4.093 5.618.195-.586-1.052-3.451-2.771-6.366-2.291-3.887-2.951-5.986-2.472-7.869 1.737-6.83 1.662-8.605-.481-11.328-2.85-3.624-8.634-3.831-11.835-.425m114.055-1.645c-.699.282-1.977 1.876-2.839 3.544-1.429 2.764-1.424 3.41.061 7.297l1.629 4.265-3.454 5.863c-1.899 3.224-3.215 6.087-2.923 6.362.293.275 1.041-.334 1.664-1.354C180.669 39.334 180.963 39 183.755 39c3.462 0 7.079-2.434 8.269-5.563 1.124-2.957-.545-8.11-3.063-9.458-1.911-1.023-6.551-1.187-8.732-.31M113.644 48.53C93.25 52.393 73.255 65.141 62.053 81.423c-4.618 6.713-10.528 19.874-12.606 28.077-2.581 10.186-2.369 28.466.452 39 6.173 23.049 21.476 41.729 42.601 52 11.373 5.53 18.495 7.428 30.712 8.185 24.647 1.527 46.715-7.229 63.788-25.31 9.128-9.667 14.041-17.857 18.221-30.375 2.965-8.88 3.175-10.446 3.221-24 .055-16.407-1.19-22.618-6.996-34.911-8.039-17.02-20.728-30.155-37.139-38.442-14.112-7.127-35.07-10.071-50.663-7.117m-88.47 17.784c-3.217 3.425-2.952 8.929.565 11.695 2.723 2.143 4.498 2.218 11.328.481 1.883-.479 3.982.181 7.869 2.472 2.915 1.719 5.78 2.966 6.366 2.771.586-.196-1.942-2.037-5.618-4.093C39.426 76.14 39 75.679 39 72.406c0-7.332-8.954-11.277-13.826-6.092m195 0c-1.245 1.326-2.174 3.61-2.174 5.345 0 3.379-1.3 4.746-8.329 8.76-2.655 1.517-4.605 2.981-4.332 3.254.274.273 3.17-.985 6.438-2.795 5.698-3.156 6.107-3.236 9.993-1.954 2.229.736 5.209 1.047 6.623.692 3.339-.838 5.946-5.798 5.091-9.688-1.289-5.867-9.179-8.01-13.31-3.614m-86.933 24.334l-20.259 12.508-8.158-7.578C100.338 91.41 95.845 88 94.84 88c-2.592 0-7.433 7.136-8.851 13.045-1.491 6.215-.658 11.007 2.584 14.859 4.947 5.88 12.547 6.127 20.55.668l3.623-2.471 2.377 2.582c4.181 4.541 11.515 7.299 19.377 7.285 11.294-.019 20.041-5.339 25.289-15.378 3.661-7.003 3.796-17.935.303-24.59-2.387-4.55-3.771-6.014-5.592-5.915-.55.03-10.117 5.683-21.259 12.563m18.009-2.358c-1.944.877-2.251 1.778-2.254 6.613-.004 6.576-2.332 11.112-7.237 14.102-4.398 2.682-12.157 2.659-16.598-.048-3.403-2.075-7.619-1.843-6.887.378.934 2.833 8.447 6.781 13.992 7.353 4.846.5 6.459.192 11.247-2.151 7.491-3.665 10.775-8.586 11.279-16.904.49-8.086-.506-10.712-3.542-9.343M94.164 99.54c-1.443 3.165-1.507 8.95-.129 11.526.583 1.089 2.086 1.934 3.441 1.934 2.305 0 2.346-.115.971-2.75-1.68-3.22-1.824-5.678-.479-8.19.72-1.346.507-2.225-.837-3.441-1.686-1.527-1.879-1.467-2.967.921M168 118.068c-4.884.788-12.394 3.553-26.631 9.806-16.804 7.379-30.293 9.22-37.385 5.103-10.376-6.025-16.207-8.238-21.579-8.19-13.482.121-19.625 10.844-16.031 27.978 5.283 25.178 27.942 40.405 60.126 40.405 14.456 0 23.945-2.165 36.466-8.32 11.075-5.443 22.08-16.136 27.102-26.334 3.229-6.556 3.432-7.573 3.432-17.153 0-9.732-.135-10.377-3.044-14.523-5.067-7.223-12.958-10.305-22.456-8.772M10.611 122.25C4.921 127.369 8.18 136 15.804 136c2.638 0 4.163-.805 6.632-3.5 3.109-3.394 3.43-3.5 10.635-3.515 5.166-.011 6.972-.311 5.929-.985-.825-.533-4.547-.976-8.271-.985-6.162-.014-6.87-.23-7.861-2.405-2.151-4.72-8.315-5.907-12.257-2.36m223.592 1.5c-3.272 3.473-4.056 3.793-10.618 4.338l-7.085.589 7.5.161c7.295.158 7.576.258 10.293 3.662 3.53 4.424 8.454 4.844 12.252 1.045 3.996-3.995 2.986-9.604-2.229-12.382-3.761-2.003-6.432-1.32-10.113 2.587M.232 128c0 1.925.206 2.713.457 1.75.252-.963.252-2.537 0-3.5-.251-.963-.457-.175-.457 1.75m161.018-.338c-5.981 2.117-5.521 4.379.927 4.562 2.142.061 3.739-.636 4.987-2.178 3.516-4.342 1.693-5.076-5.914-2.384m-80.372 6.537c1.184 3.2 3.122 3.439 3.122.384 0-1.902-.519-2.583-1.968-2.583-1.607 0-1.818.403-1.154 2.199m60.877 1.647c-2.06.91-3.747 2.168-3.75 2.797-.005 1.212 2.218 2.357 4.577 2.357 1.871 0 5.418-3.6 5.418-5.5 0-1.857-1.436-1.778-6.245.346M92 137.509c0 1.442.486 3.53 1.08 4.64 1.029 1.922 1.169 1.935 3 .279 2.655-2.403 2.411-3.706-1.08-5.769l-3-1.772v2.622m-47.362 38.117l-5.863 3.454-4.265-1.629c-3.872-1.479-4.541-1.486-7.266-.077-3.31 1.712-4.244 3.383-4.244 7.597 0 7.097 8.914 10.155 13.628 4.675 1.343-1.561 2.372-4.044 2.372-5.724 0-2.99.205-3.174 10.646-9.555 1.02-.623 1.629-1.371 1.354-1.664-.275-.292-3.138 1.024-6.362 2.923m160.363-2.962c.001.46 2.236 2.092 4.969 3.626 6.539 3.673 8.03 5.283 8.03 8.671 0 7.216 8.838 10.253 13.63 4.683 2.891-3.361 3.015-6.554.386-9.897-2.685-3.413-6.318-4.172-10.492-2.192-3.35 1.59-3.491 1.561-9.961-2.057-3.61-2.019-6.563-3.294-6.562-2.834M79.598 210.838c-3.693 6.08-5.054 7.162-9.005 7.162-4.592 0-7.919 6.382-5.972 11.455.909 2.368 6.213 4.804 8.959 4.114 3.061-.768 6.42-4.398 6.42-6.937 0-1.094-.555-3.526-1.234-5.402-1.14-3.154-.982-3.867 2.085-9.403 4.359-7.87 3.391-8.634-1.253-.989m95.9.725c3.618 6.47 3.647 6.611 2.057 9.961-.968 2.041-1.356 4.42-.971 5.953.785 3.13 4.903 6.523 7.916 6.523 3.002 0 7.13-3.389 7.909-6.493.866-3.449-1.819-8.348-4.927-8.993l-4.916-1.016c-1.711-.354-3.412-2.283-5.73-6.5-1.814-3.299-3.683-5.998-4.153-5.998-.47 0 .796 2.953 2.815 6.563m-47.748 6.769c-.412 1.007-.75 4.3-.75 7.317 0 4.974-.327 5.793-3.5 8.786-1.925 1.816-3.5 4.239-3.5 5.386 0 7.752 8.365 11.905 13.545 6.724 3.683-3.682 3.359-8.609-.795-12.095-3.027-2.54-3.284-3.248-3.75-10.338-.313-4.764-.781-6.927-1.25-5.78" fill="#1976D2" fill-rule="evenodd"/><path fill-opacity=".689" d="M122.421 1.896c-2.243 1.019-5.044 3.08-6.223 4.58-4.395 5.586-3.792 14.739 1.285 19.508 2.164 2.033 2.517 3.233 2.517 8.561v6.197l-5.75.661c-3.162.364-9.575 1.953-14.25 3.53-4.675 1.577-8.801 2.683-9.17 2.458-.368-.225-1.823-2.474-3.233-4.997-1.935-3.462-2.323-5.038-1.581-6.425 1.509-2.819 1.17-8.092-.768-11.949-6.789-13.514-28.23-8.709-28.244 6.329-.008 7.53 3.755 12.429 11.622 15.133 2.684.923 4.267 2.438 6.178 5.913l2.57 4.673-3.937 3.178c-5.012 4.046-10.145 9.179-14.191 14.191l-3.178 3.937-4.769-2.623c-3.626-1.994-4.971-3.407-5.617-5.9-1.93-7.448-7.659-11.855-15.4-11.847-14.536.014-19.642 20.319-7.041 28.001 3.305 2.015 9.527 2.533 13.192 1.097 1.763-.69 9.752 2.757 10.958 4.728.225.369-.881 4.495-2.458 9.17-1.577 4.675-3.166 11.088-3.53 14.25l-.661 5.75-6.121-.017c-5.198-.015-6.474-.39-8.464-2.488-4.972-5.241-14.41-5.678-20.056-.927-7.076 5.954-7.376 15.866-.677 22.358 5.88 5.7 16.824 5.388 21.545-.613 1.677-2.132 2.573-2.381 7.615-2.115l5.714.302 1.845 9.153c1.015 5.035 2.748 11.26 3.851 13.833 1.103 2.574 2.006 5.021 2.006 5.438 0 .417-2.138 1.92-4.75 3.339-4.285 2.328-5.197 2.478-9.319 1.532-3.91-.898-5.239-.752-9.223 1.01-5.92 2.619-8.699 6.954-8.704 13.577-.006 7.938 4.19 13.064 12.283 15.006 6.898 1.655 15.871-4.394 17.23-11.617.495-2.628 1.608-3.824 5.662-6.083l5.045-2.813 1.51 2.313c.831 1.271 5.568 6.254 10.526 11.072l9.016 8.76-2.908 4.703c-2.219 3.589-3.689 4.863-6.203 5.377-9.011 1.843-13.875 13.255-9.341 21.916 1.979 3.781 8.861 7.984 13.072 7.984 4.447 0 10.598-3.755 12.92-7.886 2.273-4.045 2.851-9.999 1.26-12.972-.676-1.262-.135-3.093 2.009-6.807l2.933-5.08 6.741 2.458c5.233 1.908 19.183 5.287 21.829 5.287.227 0 .412 2.622.412 5.826 0 4.931-.386 6.188-2.517 8.19-5.494 5.161-5.668 14.426-.384 20.444 7.066 8.047 19.687 6.657 24.526-2.702 2.608-5.043 1.455-13.048-2.46-17.088-2.78-2.868-3.165-3.939-3.165-8.811v-5.546l8.75-1.719c4.813-.945 11.428-2.8 14.702-4.121 3.273-1.322 6.005-2.306 6.072-2.188.066.118 1.344 2.351 2.839 4.963 2.457 4.29 2.609 5.113 1.583 8.539-4.12 13.749 12.991 24.868 24.006 15.6 4.42-3.719 6.49-10.033 5.046-15.396-1.358-5.043-5.547-9.625-9.62-10.523-1.583-.349-3.34-.77-3.906-.935-.565-.165-2.166-2.49-3.559-5.166l-2.532-4.867 10.773-10.607 10.772-10.606 5.037 2.877c3.679 2.101 5.038 3.478 5.041 5.106.013 8.142 11.416 14.67 19.629 11.239 5.31-2.219 8.208-5.205 9.421-9.709 3.103-11.525-7.207-22.168-18.267-18.854-3.426 1.026-4.249.874-8.539-1.583a4583.498 4583.498 0 00-4.963-2.839c-.118-.067.866-2.799 2.188-6.072 1.321-3.274 3.176-9.889 4.121-14.702l1.719-8.75h5.546c4.872 0 5.943.385 8.811 3.165 2.639 2.557 4.297 3.251 8.634 3.61 8.78.728 13.946-3.18 16.795-12.704 1.027-3.432 1.052-4.521.113-4.834-.667-.222-1.212-1.026-1.212-1.786s-1.392-2.967-3.093-4.904c-5.695-6.486-14.893-7.132-21.31-1.498-2.869 2.519-4.184 2.951-8.979 2.951-3.09 0-5.618-.185-5.618-.412 0-2.646-3.379-16.596-5.287-21.829l-2.458-6.741 5.08-2.933c3.714-2.144 5.545-2.685 6.807-2.009 2.85 1.525 8.693 1.049 12.792-1.043 4.122-2.102 8.066-8.526 8.066-13.137 0-4.211-4.203-11.093-7.984-13.072-8.661-4.534-20.073.33-21.916 9.341-.514 2.514-1.788 3.984-5.377 6.203l-4.703 2.908-8.76-9.016c-4.818-4.958-9.801-9.695-11.072-10.526l-2.313-1.51 2.813-5.045c2.259-4.054 3.455-5.167 6.083-5.662 7.223-1.359 13.272-10.332 11.617-17.23C197.445 20.189 192.323 16 184.364 16c-9.876 0-16.924 8.814-14.544 18.189.966 3.804.81 4.72-1.532 9.022-1.433 2.634-2.947 4.789-3.364 4.789-.417 0-2.864-.903-5.438-2.006-2.573-1.103-8.798-2.836-13.833-3.851l-9.153-1.845-.302-5.714c-.266-5.042-.017-5.938 2.115-7.615 3.495-2.75 5.015-7.199 4.454-13.037-.384-4.001-1.177-5.76-3.831-8.498C136.044 2.45 130.805-.027 127.5.028c-.55.009-2.835.85-5.079 1.868m.034 7.559c-1.787 1.786-2.455 3.541-2.455 6.449 0 3.39.53 4.398 3.5 6.664 3.443 2.626 3.5 2.79 3.5 10.051 0 4.254.424 7.381 1 7.381.571 0 1-2.987 1-6.961 0-5.873.342-7.28 2.189-9 1.203-1.121 2.481-2.039 2.839-2.039.971 0 2.972-4.797 2.972-7.124 0-1.116-1.315-3.345-2.923-4.953-3.73-3.73-8.182-3.909-11.622-.468m-55.9 14.795c-3.915 3.445-4.304 7.707-1.055 11.568C67.553 38.257 68.98 39 71.614 39c3.025 0 3.76.552 6.161 4.623 3.731 6.329 5.926 9.004 6.731 8.202.373-.371-.939-3.433-2.914-6.804-4.136-7.057-4.077-6.742-2.051-10.802 1.373-2.752 1.378-3.478.048-6.66-2.361-5.652-8.578-7.23-13.034-3.309m112.368.673c-3.161 3.161-3.572 5.641-1.763 10.642 1.044 2.887.844 3.767-2 8.806-1.738 3.079-3.16 6.056-3.16 6.614 0 2.499 2.066.557 5.04-4.735 3.699-6.584 4.417-7.214 8.255-7.235 3.826-.021 7.705-4.072 7.705-8.046 0-3.982-4.726-8.969-8.5-8.969-1.6 0-3.815 1.161-5.577 2.923m-67.437 23.545C95.303 51.992 80.83 60.183 69.257 72.366c-13.847 14.578-21.174 31.775-22.023 51.692-.963 22.594 5.249 40.611 20.058 58.173 9.1 10.792 26.82 21.423 42.208 25.322 10.186 2.581 28.466 2.369 39-.452 28.565-7.651 50.961-30.048 58.598-58.601 2.827-10.572 3.063-28.867.503-39-2.483-9.827-10.518-25.841-16.73-33.342-10.688-12.907-27.232-23.13-43.871-27.111-9.92-2.373-26.066-2.636-35.514-.579M27.357 63.992c-1.179.475-2.866 1.897-3.75 3.159-4.804 6.858 3.192 16.091 10.694 12.349 3.961-1.976 3.692-2.027 10.564 2 6.627 3.884 7.147 4.049 7.108 2.25-.014-.687-2.827-2.827-6.25-4.755-5.703-3.213-6.249-3.815-6.531-7.21-.222-2.667-1.154-4.416-3.327-6.245-3.161-2.66-4.948-2.985-8.508-1.548m195-.022c-2.903 1.201-5.357 4.91-5.357 8.098 0 2.964-1.453 4.425-8.274 8.319-2.626 1.499-4.509 3.156-4.184 3.681.327.53 3.469-.654 7.048-2.655 6.424-3.593 6.477-3.603 10.412-2.029C228.461 81.968 234 78.306 234 71.452c0-5.318-6.608-9.565-11.643-7.482M133.706 91c-10.802 6.6-20.043 12-20.536 12-.492 0-4.56-3.375-9.04-7.5-4.479-4.125-8.551-7.5-9.048-7.5-.497 0-2.086 1.404-3.53 3.121-9.876 11.737-6.21 28.709 6.23 28.844 3.676.039 9.741-2.223 12.394-4.624 1.608-1.456 2.002-1.369 4.92 1.086C134.162 132.47 161.98 120.35 161.98 96c0-7.805-3.656-17-6.761-17-1.03 0-10.711 5.4-21.513 12m16.636-2.527c-1.747 1.224-2.02 2.207-1.612 5.824 1.403 12.45-12.842 21.188-23.144 14.197-2.92-1.982-4.101-2.289-5.64-1.465-2.504 1.34-2.451 2.161.304 4.68 6.119 5.594 16.408 7.036 23.693 3.32 9.134-4.66 14.088-15.905 10.959-24.88-1.247-3.578-1.639-3.722-4.56-1.676m-56.893 11.995c-2.089 5-1.792 8.28 1.006 11.077 2.93 2.93 6.21 3.4 4.923.705-.459-.963-.876-4.248-.925-7.302-.139-8.58-2.433-10.634-5.004-4.48m70.532 18.959c-2.486.686-10.361 3.755-17.5 6.819-17.118 7.346-23.437 9.131-32.481 9.174-6.976.033-7.931-.231-13.661-3.779-11.349-7.028-18.404-8.24-26.145-4.493-6.441 3.118-8.632 8.445-7.933 19.289 1.407 21.835 15.468 37.461 39.756 44.181 10.064 2.785 31.956 2.554 42.438-.447 15.073-4.315 27.737-12.653 36.106-23.771 19.348-25.703 6.725-54.514-20.58-46.973m-153.956 2.548c-2.829 2.829-3.608 6.895-1.904 9.931 3.106 5.534 9.912 6.508 13.662 1.955 3.852-4.676 4.281-4.861 11.288-4.861 3.953 0 6.929-.43 6.929-1 0-.576-3.127-1-7.381-1-7.261 0-7.425-.057-10.051-3.5-2.257-2.958-3.281-3.5-6.619-3.5-2.599 0-4.624.675-5.924 1.975m223.706 1.525c-3.009 3.399-3.311 3.5-10.415 3.5-4.211 0-7.316.424-7.316 1 0 .571 2.987 1 6.961 1 6.795 0 7.056.096 10.922 4 4.094 4.135 6.676 4.837 10.433 2.837 3.319-1.768 4.617-3.976 4.652-7.913.043-4.792-3.265-7.924-8.368-7.924-3.052 0-4.361.667-6.869 3.5m-71.501 3.386c-2.898 1.001-5.597 2.148-5.998 2.549-1.125 1.124 2.835 3.565 5.785 3.565 2.915 0 6.983-3.678 6.983-6.314 0-2.069-.223-2.062-6.77.2M.158 128c0 1.375.227 1.938.504 1.25.278-.687.278-1.812 0-2.5-.277-.687-.504-.125-.504 1.25M80 132.453c0 1.276 2.434 5.547 3.161 5.547.461 0 .839-1.35.839-3 0-2.333-.444-3-2-3-1.1 0-2 .204-2 .453m62.5 2.759c-6.269 2.691-6.02 2.456-4.52 4.264 2.033 2.449 6.592 1.883 8.947-1.111 2.064-2.623 2.751-5.394 1.323-5.332-.412.018-3 .998-5.75 2.179m-51.5.547c0 3.232 2.112 8.241 3.475 8.241 1.854 0 3.745-2.62 3.354-4.648-.184-.959-1.797-2.597-3.582-3.64-3.199-1.868-3.247-1.867-3.247.047m60.173 18.51c-1.831.586-5.463 2.985-8.073 5.331-4.508 4.053-4.943 4.223-8.678 3.384-4.91-1.104-10.41.08-15.249 3.283-4.019 2.659-8.827 10.47-9.347 15.184-.307 2.776-.059 3.002 4.174 3.81 7.609 1.452 26.627.215 34.5-2.244 11.494-3.59 27.5-13.855 27.5-17.636 0-2.527-8.297-9.861-12.616-11.151-4.808-1.437-7.628-1.428-12.211.039M44.137 175.216c-4.827 2.794-5.683 2.988-8.571 1.944-5.343-1.932-8.151-1.441-10.977 1.917-1.424 1.692-2.589 4.202-2.589 5.577 0 3.617 5.082 8.346 8.969 8.346 3.974 0 8.025-3.879 8.046-7.705.021-3.765.575-4.404 7.235-8.353 5.541-3.286 7.124-5.004 4.5-4.886-.687.031-3.663 1.453-6.613 3.16m159.87-2.466c.004.412 2.813 2.339 6.242 4.28 3.861 2.187 6.348 4.281 6.532 5.5.748 4.965 1.391 6.553 3.42 8.442 3.066 2.857 8.257 2.661 11.344-.427 5.348-5.347 1.592-14.545-5.941-14.545-1.917 0-3.764.45-4.104 1-1.104 1.787-4.894 1.029-10-2-4.947-2.935-7.507-3.703-7.493-2.25m-123.62 35.976c-3.931 6.886-5.355 8.274-8.486 8.274-4.315 0-8.301 4.006-8.301 8.343 0 7.096 7.487 11.086 13.241 7.056 3.662-2.565 4.555-6.195 2.593-10.546l-1.679-3.723 3.634-6.499c2.014-3.6 3.209-6.762 2.679-7.089-.525-.325-2.182 1.558-3.681 4.184M172 205.169c0 .643 1.35 3.561 3 6.485 3.085 5.466 3.754 8.762 2 9.846-2 1.236-1.093 7.498 1.455 10.045 5.128 5.129 14.545 1.604 14.545-5.444 0-4.244-3.768-8.216-8.529-8.989-3.534-.575-4.259-1.244-7.443-6.867-3.366-5.945-5.028-7.623-5.028-5.076m-45 18.147c0 7.104-.101 7.406-3.5 10.415-2.904 2.57-3.5 3.782-3.5 7.111 0 3.144.57 4.462 2.635 6.085 3.329 2.619 8.35 2.667 11.098.107 4.589-4.275 4.11-9.526-1.241-13.608-3.433-2.619-3.492-2.787-3.492-10.045 0-4.254-.424-7.381-1-7.381-.576 0-1 3.105-1 7.316" fill="#1976D2" fill-rule="evenodd"/></svg>